<svg xmlns="http://www.w3.org/2000/svg" width="892.91" height="584.16" viewBox="0 0 892.91 584.16" xmlns:xlink="http://www.w3.org/1999/xlink"><path d="m887,583.16H0v-2h887c.55,0,1,.45,1,1h0c0,.55-.45,1-1,1Z" fill="#3f3d56"/><g><path d="m218.96,581.16h-55.57c-8.31,0-15.06-6.76-15.06-15.06v-163.11c0-8.31,6.76-15.06,15.06-15.06h55.57c8.31,0,15.06,6.76,15.06,15.06v163.11c0,8.31-6.76,15.06-15.06,15.06h0Z" fill="#3f3d56"/><path d="m763.4,581.48h-55.57c-8.31,0-15.06-6.76-15.06-15.06v-163.11c0-8.31,6.76-15.06,15.06-15.06h55.57c8.31,0,15.06,6.76,15.06,15.06v163.11c0,8.31-6.76,15.06-15.06,15.06Z" fill="#3f3d56"/><path d="m232.14,175.86l-81.83,116.23c-9.87,14.02-13.79,31.39-10.89,48.3l24.87,144.9c5.34,31.12,32.33,53.87,63.9,53.87h480.88c34.27,0,62.62-26.67,64.72-60.88l9.6-156.77c1.14-18.66-5.83-36.91-19.12-50.06l-114.79-113.55c-12.6-12.46-29.75-19.23-47.47-18.72l-318.73,9.19c-20.43.59-39.38,10.77-51.15,27.48h0Z" fill="#fa6771"/><path d="m244.6,196.49l-15.65,29.26c-9.97,18.64,4.57,40.66,26.68,40.41l391.73-4.35c24.06-.27,37.61-26.2,23.22-44.44l-24.67-31.27c-5.69-7.21-14.71-11.39-24.22-11.22l-351.41,6.36c-10.9.2-20.78,6.06-25.69,15.25h0Z" fill="#fff"/><path d="m734.95,257.54c-2.53,0-5-.94-6.89-2.65-2.14-1.94-3.38-4.71-3.38-7.61v-6.43s1.29-29.64,1.29-29.64c.24-5.5,4.74-9.81,10.25-9.81h40.78c3.8,0,7.27,2.08,9.05,5.43l4.86,9.11c1.54,2.88,1.62,6.23.24,9.18-1.39,2.96-4.01,5.03-7.21,5.69l-30.74,6.36c-3.18.66-5.68,3.01-6.54,6.15l-1.82,6.66c-1.11,4.07-4.68,7.09-8.88,7.51-.34.03-.68.05-1.02.05h0Z" fill="#fa6771"/><path d="m184.1,257.49c-4.2-.42-7.77-3.44-8.88-7.51l-1.82-6.66c-.85-3.13-3.36-5.49-6.54-6.15l-30.74-6.36c-3.2-.66-5.83-2.73-7.21-5.69-1.39-2.96-1.3-6.3.24-9.18l4.86-9.11c1.79-3.35,5.26-5.43,9.05-5.43h40.78c5.51,0,10.01,4.31,10.25,9.81l1.29,29.64v6.43c0,2.89-1.23,5.67-3.37,7.61-1.89,1.71-4.36,2.65-6.89,2.65-.34,0-.68-.02-1.02-.05h0Z" fill="#fa6771"/><circle cx="240.75" cy="344.23" r="40.33" fill="#fff"/><circle cx="705.37" cy="345.07" r="40.33" fill="#fff"/></g><g><path d="m187.07,128.78c3.71,2.08,6.88,5.02,9.22,8.57l26.48,15.75,44.99,21.07s10.61-37.72,23.29-40.13c12.68-2.41,33.59,25.55,33.59,25.55,0,0-36.46,59.03-52.34,52.98-15.88-6.05-51.37-35.45-51.37-35.45l-4.64-3.77-29.48-19.61c-4.25-.26-8.37-1.53-12.03-3.71-9.22-5.33-13.95-14.4-10.56-20.27,3.39-5.87,13.61-6.31,22.84-.98h0Z" fill="#9f616a"/><path d="m274.77,145.15l23.01-27.09,13.9,2c17.05,2.46,26.53,21.05,18.5,36.29l-8.01,15.2-47.4-26.41h0Z" fill="#e5e5e5"/></g><path d="m199.95,180.61l-40.5-55.83c-.6-.82-.45-1.98.33-2.63l9.71-8.02c.42-.35.97-.5,1.51-.42.54.08,1.02.39,1.33.84l40.24,60.39c.33.5.42,1.11.23,1.67-.19.57-.61,1.01-1.18,1.22l-9.45,3.46c-.69.26-1.47.08-2-.41-.09-.08-.17-.17-.24-.27h0Z" fill="#3f3d56"/><path d="m203.17,177.2l-41.91-54.33c-.62-.8-.58-1.85.1-2.38l8.33-6.56c.36-.28.86-.38,1.37-.26.51.12.98.43,1.3.88l42.04,58.48c.35.48.47,1.04.35,1.55-.13.51-.49.88-.99,1.02l-8.46,2.41c-.62.18-1.35-.04-1.88-.54-.09-.08-.17-.17-.24-.26h0Z" fill="#e5e5e5"/><g><g><polygon points="186.44 516.9 168.22 556.23 138.49 542.8 161.51 513.07 186.44 516.9" fill="#9f616a"/><path d="m155.75,543.76l22.06-2.88s15.35,36.45,3.84,38.37-101.67,10.55-101.67-.96,37.41-25.9,37.41-25.9l25.9-18.22,12.47,9.59h0Z" fill="#2f2e41"/></g><path d="m329.36,263.68s26.86,40.28-30.69,65.22l-61.39,88.24-50.84,110.3-30.69-11.51,53.71-166.89,30.69-74.81,14.39-23.02,74.81,12.47h0Z" fill="#2f2e41"/></g><g><g><polygon points="173.02 510.3 152.27 548.35 123.48 533.01 148.39 504.84 173.02 510.3" fill="#9f616a"/><path d="m140.64,535.1l22.2-1.43s12.94,37.37,1.33,38.53-102.14,3.9-101.39-7.59c.75-11.49,39.02-23.4,39.02-23.4l27.03-16.5,11.82,10.38h0Z" fill="#2f2e41"/></g><path d="m332.14,266.94s24.17,41.95-34.88,63.08l-67.01,84.05-57.92,106.75-29.88-13.49,64.48-163.04,35.5-72.65,15.86-22.03,73.84,17.32h0s0,0,0,0Z" fill="#2f2e41"/></g><g><polygon points="307.91 78.37 289.68 114.08 338.17 121.62 337.64 73.61 307.91 78.37" fill="#9f616a"/><circle cx="318.03" cy="59.27" r="33.75" fill="#9f616a"/></g><path d="m339.91,275.19l5.57-90.17c4.82-21.58,3.21-44.1-4.61-64.79l-1.91-21.53-44.12,2.88-18.7,30.21-17.74,71.46-3.84,47.96,85.36,23.98h0Z" fill="#e5e5e5"/><g><path d="m210.79,205.43c4.21-.59,8.51-.17,12.53,1.24l30.61-3.5,48.57-10.46s-14.39-36.45-5.75-46.04,42.2,0,42.2,0c0,0,6.71,69.06-9.59,73.86-16.31,4.8-62.35,2.88-62.35,2.88l-5.97-.19-35.34,2.23c-3.54,2.37-7.59,3.85-11.82,4.33-10.56,1.34-19.82-3.02-20.67-9.74-.85-6.72,7.02-13.26,17.59-14.6h0Z" fill="#9f616a"/><path d="m290.51,165.37l1.92-35.49,12.28-6.82c15.06-8.37,33.86.7,36.69,17.69l2.82,16.94-53.71,7.67h0Z" fill="#e5e5e5"/></g><path d="m344.35,80.01s3.15-15.74-6.29-16.79-18.88-19.93-18.88-19.93c0,0-32.58-5.68-33.63,7.96-1.05,13.64-.65,10.61-.65,10.61,0,0-7.75-3.26-4.6-16.9.9-3.9,3.08-7.45,5.74-10.54,8.55-9.93,21.69-14.62,34.71-13.12,5.51.64,21.93,5.87,25.1,9.44,8.39,9.44,12.14,38.79-1.5,49.28Z" fill="#3f3d56"/><path d="m233.07,480.15c-5.92,0-11.14-3.1-13.99-8.3-2.86-5.23-2.62-11.34.62-16.33l.48.31-.48-.31,10.53-16.2c2.95-4.54,7.95-7.25,13.37-7.25h457.88c4.67,0,9.09,2.03,12.12,5.58l11.55,13.51c4.08,4.77,4.99,11.28,2.38,16.99-2.61,5.71-8.13,9.28-14.41,9.31l-479.96,2.68h-.1,0Z" fill="#3f3d56"/><g><g><path id="uuid-e55a5fd1-c58c-41de-a718-216df17603fa-157" d="m780.89,284.63c8.42,5.51,18.09,5.63,21.6.27s-.48-14.17-8.91-19.68c-3.34-2.25-7.16-3.66-11.16-4.13l-35.98-22.89-10.38,17.12,36.58,20.75c2.03,3.47,4.86,6.41,8.26,8.57h0Z" fill="#ffb5b5"/><path d="m678.54,228.22l88.28,45.63,7.68-21.12-59.88-46.9-3.99-68.43c-.49-8.36-4.68-15.93-11.5-20.78-6.82-4.85-15.35-6.32-23.4-4.04h0c-14.34,4.06-22.88,19.08-19.05,33.48l21.86,82.17h0Z" fill="#e5e5e5"/></g><polygon points="699.86 105.77 703.99 79.97 676.13 68.62 672 107.83 699.86 105.77" fill="#ffb5b5"/><path d="m612.13,252.56s-8,49.99,23.99,55.99,104.98,10,104.98,10l93.98,113.97,19-21-80.98-124.97-64.99-40.99-95.98,7Z" fill="#2f2e41"/><path d="m619.76,244.46s-18.65,47.06,11.28,59.86,100.31,32.53,100.31,32.53l67.01,131.65,23.1-16.37-51.94-139.56-54.54-54.11-95.21-13.99h0Z" fill="#2f2e41"/><path d="m705.11,101.59l-35.99-6-24.39,13.58c-14.2,20.65-15.37,86.15-18.72,110.99l-19.87,46.39,62.99-9,50.99-5-17-110.98,2-39.99h0s0,0,0,0Z" fill="#e5e5e5"/><g><circle cx="692.82" cy="59.85" r="28.41" fill="#ffb5b5"/><path d="m690.56,21.66c.82.48,1.92-.25,2.19-1.16s-.04-1.89-.35-2.79c-.51-1.51-1.02-3.03-1.53-4.54-1.09-3.22-2.24-6.55-4.6-9-3.55-3.7-9.2-4.64-14.29-3.96-6.53.88-12.97,4.41-16.01,10.26-3.04,5.85-1.74,14,3.74,17.65-7.82,8.96-10.54,18.95-10.11,30.83s13.38,22.82,21.83,31.19c1.89-1.14,3.6-6.5,2.56-8.45s.45-4.2-.84-5.99c-1.28-1.79-2.36,1.06-1.06-.72.82-1.12-2.38-3.71-1.16-4.39,5.89-3.26,7.85-10.6,11.55-16.22,4.46-6.78,12.1-11.38,20.19-12.14,4.45-.42,9.16.34,12.81,2.93s6.01,7.21,5.17,11.6c2.19-2.23,3.28-5.49,2.87-8.58s-2.32-5.96-5.01-7.54c1.64-5.42.24-11.66-3.57-15.86s-19.25-3.48-24.81-2.38" fill="#2f2e41"/><path d="m689.69,42.39c-7.36.79-12.68,7.17-17.16,13.06-2.59,3.39-5.3,7.14-5.23,11.41.07,4.31,2.95,8.01,4.33,12.1,2.25,6.68.06,14.63-5.31,19.21,5.3,1.01,11.03-2.97,11.94-8.28,1.07-6.19-3.63-12.16-3.07-18.42.49-5.51,4.83-9.75,8.52-13.87,3.69-4.12,7.16-9.59,5.46-14.85" fill="#2f2e41"/></g><g><path id="uuid-70bd52b2-fcde-4580-9ad2-1a2314addf12-158" d="m758.31,289.97c8.42,5.51,18.09,5.63,21.6.27s-.48-14.17-8.91-19.68c-3.34-2.25-7.16-3.66-11.16-4.13l-35.98-22.89-10.38,17.12,36.58,20.75c2.03,3.47,4.86,6.41,8.26,8.57Z" fill="#ffb5b5"/><path d="m655.96,233.56l88.28,45.63,7.68-21.12-59.88-46.9-3.99-68.43c-.49-8.36-4.68-15.93-11.5-20.78-6.82-4.85-15.35-6.32-23.4-4.04h0c-14.34,4.06-22.88,19.08-19.05,33.48l21.86,82.17h0Z" fill="#e5e5e5"/></g><path d="m801.54,450.84l2.04,1.17s14-8,21,0,12,27.99,12,27.99c0,0,28.99,23.99,12,23.99-12.79,0-43.15-14.16-57.38-21.17-4.54-2.24-6.66-7.55-4.89-12.29,1.47-3.95,3.38-8.1,5.28-9.53,2-1.5,3.25-4.75,4-7.62.68-2.6,3.62-3.88,5.96-2.54h0Z" fill="#2f2e41"/><path d="m840.54,412.85l2.04,1.17s14-8,21,0,12,27.99,12,27.99c0,0,28.99,23.99,12,23.99-12.79,0-43.15-14.16-57.38-21.17-4.54-2.24-6.66-7.55-4.89-12.29,1.47-3.95,3.38-8.1,5.28-9.53,2-1.5,3.25-4.75,4-7.62.68-2.6,3.62-3.88,5.96-2.54h0Z" fill="#2f2e41"/></g></svg>